<?xml version="1.0" encoding="iso-8859-1"?>
<!-- Generator: Adobe Illustrator 19.0.0, SVG Export Plug-In . SVG Version: 6.00 Build 0)  -->
<svg version="1.1" id="Layer_1" xmlns="http://www.w3.org/2000/svg" xmlns:xlink="http://www.w3.org/1999/xlink" x="0px" y="0px"
	 viewBox="0 0 495 495" style="enable-background:new 0 0 495 495;" xml:space="preserve">
<g>
	<path style="fill:#9BC9FF;" d="M247.5,0v140.444l24.483-24.563l28.33,28.238L247.5,197.105v100.789l52.813,52.986l-28.33,28.238
		L247.5,354.556V495C384.19,495,495,384.19,495,247.5S384.19,0,247.5,0z"/>
	<path style="fill:#BDDBFF;" d="M140.792,247.5L247.5,140.444V0C110.81,0,0,110.81,0,247.5S110.81,495,247.5,495V354.556
		L140.792,247.5z"/>
	<polygon style="fill:#BDDBFF;" points="247.5,297.895 247.5,197.105 197.269,247.5 	"/>
	<polygon style="fill:#2488FF;" points="247.5,354.556 271.983,379.119 300.313,350.881 247.5,297.895 197.269,247.5 247.5,197.105 
		300.313,144.119 271.983,115.881 247.5,140.444 140.792,247.5 	"/>
</g>
<g>
</g>
<g>
</g>
<g>
</g>
<g>
</g>
<g>
</g>
<g>
</g>
<g>
</g>
<g>
</g>
<g>
</g>
<g>
</g>
<g>
</g>
<g>
</g>
<g>
</g>
<g>
</g>
<g>
</g>
</svg>
