<svg xmlns="http://www.w3.org/2000/svg" xmlns:xlink="http://www.w3.org/1999/xlink" version="1.1" width="375.636" height="375.635" style="" xml:space="preserve"><rect id="backgroundrect" width="100%" height="100%" x="0" y="0" fill="none" stroke="none"/>
















<g class="currentLayer" style=""><title>Layer 1</title><g id="svg_1" class="selected" fill="#ffffff" fill-opacity="1">
	<g id="svg_2" fill="#ffffff" fill-opacity="1">
		<g id="svg_3" fill="#ffffff" fill-opacity="1">
			<path d="M41.013,228.825C18.396,228.825,0,210.438,0,187.818c0-22.608,18.396-41.007,41.013-41.007     c22.617,0,41.013,18.398,41.013,41.007C82.025,210.438,63.63,228.825,41.013,228.825z" id="svg_4" fill="#ffffff" fill-opacity="1"/>
		</g>
		<g id="svg_5" fill="#ffffff" fill-opacity="1">
			<path d="M185.513,228.825c-22.617,0-41.013-18.387-41.013-41.007c0-22.608,18.396-41.007,41.013-41.007     c22.613,0,41.013,18.398,41.013,41.007C226.525,210.438,208.126,228.825,185.513,228.825z" id="svg_6" fill="#ffffff" fill-opacity="1"/>
		</g>
		<g id="svg_7" fill="#ffffff" fill-opacity="1">
			<path d="M334.623,228.825c-22.613,0-41.013-18.387-41.013-41.007c0-22.608,18.399-41.007,41.013-41.007     c22.614,0,41.013,18.398,41.013,41.007C375.636,210.438,357.237,228.825,334.623,228.825z" id="svg_8" fill="#ffffff" fill-opacity="1"/>
		</g>
	</g>
</g><g id="svg_9" class="selected" fill="#ffffff" fill-opacity="1">
</g><g id="svg_10" class="selected" fill="#ffffff" fill-opacity="1">
</g><g id="svg_11" class="selected" fill="#ffffff" fill-opacity="1">
</g><g id="svg_12" class="selected" fill="#ffffff" fill-opacity="1">
</g><g id="svg_13" class="selected" fill="#ffffff" fill-opacity="1">
</g><g id="svg_14" class="selected" fill="#ffffff" fill-opacity="1">
</g><g id="svg_15" class="selected" fill="#ffffff" fill-opacity="1">
</g><g id="svg_16" class="selected" fill="#ffffff" fill-opacity="1">
</g><g id="svg_17" class="selected" fill="#ffffff" fill-opacity="1">
</g><g id="svg_18" class="selected" fill="#ffffff" fill-opacity="1">
</g><g id="svg_19" class="selected" fill="#ffffff" fill-opacity="1">
</g><g id="svg_20" class="selected" fill="#ffffff" fill-opacity="1">
</g><g id="svg_21" class="selected" fill="#ffffff" fill-opacity="1">
</g><g id="svg_22" class="selected" fill="#ffffff" fill-opacity="1">
</g><g id="svg_23" class="selected" fill="#ffffff" fill-opacity="1">
</g></g></svg>